<?xml version='1.0' encoding='UTF-8'?>
<svg xmlns="http://www.w3.org/2000/svg" width="244" zoomAndPan="magnify" viewBox="0.92 85.27 243.05 145.55" height="146" preserveAspectRatio="xMidYMid meet" version="1.0"><defs><g /><clipPath id="2981714ae4"><rect x="0" width="270" y="0" height="135" /></clipPath></defs><g transform="matrix(1, 0, 0, 1, -0, 76)"><g clip-path="url(#2981714ae4)"><g fill="#141414" fill-opacity="1"><g transform="translate(0.0122984, 101.902238)"><g><path d="M 200.78125 -64.03125 C 197.925781 -63.457031 195.101562 -63.171875 192.3125 -63.171875 C 186.46875 -63.171875 180.078125 -64.644531 173.140625 -67.59375 C 167.191406 -70.289062 161.269531 -72.984375 155.375 -75.671875 C 148.28125 -78.566406 141.601562 -79.988281 135.34375 -79.9375 L 134.578125 -79.9375 C 133.179688 -71.65625 129.300781 -64.226562 122.9375 -57.65625 C 117.1875 -51.707031 110.125 -47.078125 101.75 -43.765625 C 95.695312 -41.390625 89.953125 -40.203125 84.515625 -40.203125 C 76.234375 -40.203125 72.09375 -42.867188 72.09375 -48.203125 C 72.09375 -51.609375 74.035156 -55.71875 77.921875 -60.53125 C 76.367188 -63.175781 75.59375 -65.945312 75.59375 -68.84375 C 75.59375 -74.269531 77.867188 -79.570312 82.421875 -84.75 C 86.503906 -89.457031 91.703125 -93.335938 98.015625 -96.390625 C 104.171875 -99.390625 109.890625 -100.890625 115.171875 -100.890625 C 120.660156 -100.890625 125.265625 -99.257812 128.984375 -96 C 132.972656 -92.53125 134.835938 -88.109375 134.578125 -82.734375 L 134.8125 -82.65625 C 135.6875 -82.601562 136.976562 -82.5 138.6875 -82.34375 C 142.519531 -81.925781 146.738281 -80.96875 151.34375 -79.46875 C 155.007812 -78.28125 160.269531 -76.132812 167.125 -73.03125 C 173.988281 -69.925781 179.148438 -67.804688 182.609375 -66.671875 C 184.941406 -65.890625 187.945312 -65.316406 191.625 -64.953125 C 196.84375 -64.492188 199.894531 -64.1875 200.78125 -64.03125 Z M 143.03125 -21.421875 C 143.03125 -13.140625 137.753906 -6.128906 127.203125 -0.390625 C 131.753906 2.046875 134.03125 4.816406 134.03125 7.921875 C 134.03125 8.796875 133.847656 9.234375 133.484375 9.234375 C 133.273438 9.234375 133.171875 8.945312 133.171875 8.375 C 133.171875 5.164062 130.894531 2.398438 126.34375 0.078125 C 119.925781 3.546875 113.796875 5.28125 107.953125 5.28125 C 103.035156 5.28125 100.578125 4.398438 100.578125 2.640625 C 100.578125 1.609375 101.664062 0.546875 103.84375 -0.546875 C 106.375 -1.785156 110.097656 -2.40625 115.015625 -2.40625 C 118.484375 -2.40625 121.691406 -1.785156 124.640625 -0.546875 C 128.617188 -3.859375 131.851562 -7.554688 134.34375 -11.640625 C 137.1875 -16.398438 138.609375 -21.054688 138.609375 -25.609375 C 138.609375 -28.710938 137.535156 -31.25 135.390625 -33.21875 C 133.242188 -35.1875 130.59375 -36.171875 127.4375 -36.171875 C 127.125 -36.171875 126.65625 -36.117188 126.03125 -36.015625 C 125.414062 -35.910156 124.953125 -35.859375 124.640625 -35.859375 C 124.640625 -35.859375 124.507812 -35.882812 124.25 -35.9375 L 123.9375 -36.25 C 124.40625 -36.757812 125.703125 -37.015625 127.828125 -37.015625 C 131.960938 -37.015625 135.53125 -35.460938 138.53125 -32.359375 C 141.53125 -29.253906 143.03125 -25.609375 143.03125 -21.421875 Z M 152.65625 -70.78125 C 152.65625 -69.894531 151.800781 -69.171875 150.09375 -68.609375 C 148.90625 -68.242188 147.222656 -67.492188 145.046875 -66.359375 C 141.171875 -63.566406 135.457031 -56.8125 127.90625 -46.09375 C 122.675781 -38.28125 117.421875 -30.492188 112.140625 -22.734375 C 103.347656 -10.109375 94.347656 -1.132812 85.140625 4.1875 C 76.390625 9.257812 66.273438 11.796875 54.796875 11.796875 C 44.128906 11.796875 35.820312 9.335938 29.875 4.421875 C 23.457031 3.492188 18.179688 1.757812 14.046875 -0.78125 C 8.566406 -4.144531 5.828125 -8.59375 5.828125 -14.125 C 5.828125 -18.675781 8 -22.144531 12.34375 -24.53125 C 15.863281 -26.4375 20.15625 -27.390625 25.21875 -27.390625 C 26.101562 -27.390625 26.984375 -27.363281 27.859375 -27.3125 C 31.117188 -31.613281 35.773438 -35.160156 41.828125 -37.953125 C 47.722656 -40.640625 53.46875 -41.984375 59.0625 -41.984375 C 60.875 -41.984375 63.4375 -41.800781 66.75 -41.4375 C 66.800781 -42.375 67.003906 -43.4375 67.359375 -44.625 C 67.828125 -46.28125 68.375 -47.109375 69 -47.109375 L 69.078125 -47.109375 C 69.023438 -46.847656 68.722656 -46.109375 68.171875 -44.890625 C 67.628906 -43.679688 67.332031 -42.476562 67.28125 -41.28125 C 73.851562 -40.144531 78.71875 -37.640625 81.875 -33.765625 C 83.945312 -33.867188 86.144531 -34.226562 88.46875 -34.84375 C 95.769531 -36.757812 103.378906 -40.359375 111.296875 -45.640625 C 118.117188 -50.492188 124.945312 -55.378906 131.78125 -60.296875 C 134.625 -62.265625 137.03125 -63.816406 139 -64.953125 C 140.5 -65.679688 142.722656 -66.847656 145.671875 -68.453125 C 146.648438 -69.066406 147.632812 -69.710938 148.625 -70.390625 C 149.8125 -71.117188 150.894531 -71.484375 151.875 -71.484375 C 152.394531 -71.484375 152.65625 -71.25 152.65625 -70.78125 Z M 133.953125 -82.734375 C 133.742188 -87.546875 131.46875 -91.503906 127.125 -94.609375 C 123.132812 -97.398438 118.660156 -98.796875 113.703125 -98.796875 C 105.003906 -98.796875 96.695312 -95.691406 88.78125 -89.484375 C 80.550781 -83.015625 76.4375 -76.160156 76.4375 -68.921875 C 76.4375 -66.222656 77.113281 -63.582031 78.46875 -61 C 85.757812 -67.832031 94.359375 -73.203125 104.265625 -77.109375 C 114.171875 -81.015625 124.066406 -82.890625 133.953125 -82.734375 Z M 133.40625 -79.78125 L 131.46875 -79.78125 C 123.34375 -79.9375 114.109375 -78.097656 103.765625 -74.265625 C 93.109375 -70.390625 84.878906 -65.707031 79.078125 -60.21875 C 81.828125 -56.707031 85.941406 -54.953125 91.421875 -54.953125 C 97.367188 -54.953125 103.113281 -56.785156 108.65625 -60.453125 C 112.375 -62.941406 114.546875 -65.398438 115.171875 -67.828125 C 115.273438 -68.191406 115.40625 -68.375 115.5625 -68.375 C 115.664062 -68.375 115.71875 -68.269531 115.71875 -68.0625 C 115.71875 -65.6875 113.644531 -62.921875 109.5 -59.765625 C 105.882812 -57.015625 102.65625 -55.253906 99.8125 -54.484375 C 97.6875 -53.910156 95.359375 -53.625 92.828125 -53.625 C 86.460938 -53.625 81.703125 -55.695312 78.546875 -59.84375 C 74.816406 -56.425781 72.953125 -52.851562 72.953125 -49.125 C 72.953125 -46.332031 74.453125 -44.238281 77.453125 -42.84375 C 79.734375 -41.800781 82.453125 -41.28125 85.609375 -41.28125 C 95.128906 -41.28125 105.863281 -45.550781 117.8125 -54.09375 C 121.488281 -56.726562 124.851562 -60.554688 127.90625 -65.578125 C 130.957031 -70.597656 132.789062 -75.332031 133.40625 -79.78125 Z M 144.8125 -67.28125 L 144.8125 -67.359375 C 142.175781 -66.273438 137.1875 -63.066406 129.84375 -57.734375 C 125.03125 -54.171875 120.21875 -50.628906 115.40625 -47.109375 C 109.507812 -42.867188 104.285156 -39.582031 99.734375 -37.25 C 93.828125 -34.25 88.289062 -32.363281 83.125 -31.59375 C 84.46875 -29.570312 85.140625 -27.0625 85.140625 -24.0625 C 85.140625 -15.3125 80.535156 -8.015625 71.328125 -2.171875 C 63.253906 2.953125 54.5625 5.515625 45.25 5.515625 C 43.957031 5.515625 39.894531 5.226562 33.0625 4.65625 L 32.984375 4.8125 C 38.617188 8.84375 45.992188 10.859375 55.109375 10.859375 C 71.242188 10.859375 85.804688 3.460938 98.796875 -11.328125 C 101.535156 -14.484375 105.851562 -20.28125 111.75 -28.71875 C 118.53125 -38.5 123.890625 -45.84375 127.828125 -50.75 C 134.242188 -58.875 139.90625 -64.382812 144.8125 -67.28125 Z M 123.78125 -0.078125 C 122.070312 -0.898438 119.304688 -1.3125 115.484375 -1.3125 C 112.992188 -1.3125 110.691406 -1.132812 108.578125 -0.78125 C 105.109375 -0.101562 103.375 0.957031 103.375 2.40625 C 103.375 3.800781 105.003906 4.5 108.265625 4.5 C 113.441406 4.5 118.613281 2.972656 123.78125 -0.078125 Z M 80.171875 -33.609375 C 77.378906 -36.867188 73.109375 -39.09375 67.359375 -40.28125 C 67.671875 -37.894531 69.171875 -36.109375 71.859375 -34.921875 C 73.984375 -33.992188 76.441406 -33.53125 79.234375 -33.53125 C 79.546875 -33.53125 79.859375 -33.554688 80.171875 -33.609375 Z M 83.5 -24.296875 C 83.5 -27.140625 82.851562 -29.519531 81.5625 -31.4375 C 81.351562 -31.382812 80.523438 -31.359375 79.078125 -31.359375 C 71.265625 -31.359375 67.179688 -34.382812 66.828125 -40.4375 C 63.867188 -40.851562 61.332031 -41.0625 59.21875 -41.0625 C 53.675781 -41.0625 48.289062 -39.816406 43.0625 -37.328125 C 37.84375 -34.847656 33.578125 -31.429688 30.265625 -27.078125 C 36.003906 -26.253906 39.9375 -23.976562 42.0625 -20.25 C 42.375 -19.789062 42.6875 -19.09375 43 -18.15625 L 42.765625 -17.765625 C 42.660156 -17.921875 42.425781 -18.363281 42.0625 -19.09375 C 40.09375 -22.863281 36.03125 -25.269531 29.875 -26.3125 C 26.664062 -22.375 25.0625 -17.5625 25.0625 -11.875 C 25.0625 -5.457031 27.390625 -0.332031 32.046875 3.5 C 34.429688 3.957031 37.304688 4.1875 40.671875 4.1875 C 52.617188 4.1875 62.628906 1.625 70.703125 -3.5 C 79.234375 -8.925781 83.5 -15.859375 83.5 -24.296875 Z M 29.03125 3.265625 L 29.03125 3.1875 C 24.675781 -0.851562 22.5 -5.925781 22.5 -12.03125 C 22.5 -17.613281 24.101562 -22.476562 27.3125 -26.625 C 26.59375 -26.675781 25.867188 -26.703125 25.140625 -26.703125 C 20.535156 -26.703125 16.679688 -25.742188 13.578125 -23.828125 C 9.859375 -21.546875 8 -18.234375 8 -13.890625 C 8 -9.128906 10.425781 -5.144531 15.28125 -1.9375 C 19.007812 0.539062 23.59375 2.273438 29.03125 3.265625 Z M 29.03125 3.265625 " /></g></g></g><g fill="#141414" fill-opacity="1"><g transform="translate(145.527651, 101.902238)"><g><path d="M 17.625 -7.609375 C 17.625 -7.453125 17.390625 -7.140625 16.921875 -6.671875 C 15.003906 -4.703125 12.882812 -3.046875 10.5625 -1.703125 C 7.8125 -0.0976562 5.273438 0.703125 2.953125 0.703125 C 0.109375 0.703125 -1.3125 -0.253906 -1.3125 -2.171875 C -1.3125 -3.566406 -0.691406 -5.09375 0.546875 -6.75 L 0.46875 -6.75 C -0.257812 -5.976562 -0.753906 -5.59375 -1.015625 -5.59375 C -1.066406 -5.59375 -1.117188 -5.617188 -1.171875 -5.671875 L -1.171875 -5.828125 C -1.171875 -5.828125 -1.144531 -5.925781 -1.09375 -6.125 C 0.363281 -7.726562 2.488281 -9.304688 5.28125 -10.859375 C 8.28125 -12.460938 10.738281 -13.265625 12.65625 -13.265625 C 14.15625 -13.265625 14.90625 -12.59375 14.90625 -11.25 C 14.90625 -8.925781 11 -6.519531 3.1875 -4.03125 C 2.875 -3 2.71875 -2.300781 2.71875 -1.9375 C 2.71875 -1.007812 3.3125 -0.546875 4.5 -0.546875 C 6.101562 -0.546875 7.992188 -1.164062 10.171875 -2.40625 C 11.671875 -3.28125 13.300781 -4.441406 15.0625 -5.890625 C 16.5625 -7.191406 17.335938 -7.84375 17.390625 -7.84375 C 17.546875 -7.84375 17.625 -7.765625 17.625 -7.609375 Z M 12.1875 -11.5625 C 12.1875 -12.03125 11.875 -12.265625 11.25 -12.265625 C 10.21875 -12.265625 8.796875 -11.28125 6.984375 -9.3125 C 5.585938 -7.8125 4.472656 -6.335938 3.640625 -4.890625 L 3.640625 -4.8125 C 9.335938 -6.625 12.1875 -8.875 12.1875 -11.5625 Z M 12.1875 -11.5625 " /></g></g></g><g fill="#141414" fill-opacity="1"><g transform="translate(161.980583, 101.902238)"><g><path d="M 25.21875 -7.609375 C 25.21875 -7.347656 24.414062 -6.492188 22.8125 -5.046875 C 21.519531 -3.910156 20.539062 -3.082031 19.875 -2.5625 C 17.175781 -0.539062 14.945312 0.46875 13.1875 0.46875 C 12.050781 0.46875 11.273438 0.0507812 10.859375 -0.78125 C 10.660156 -1.289062 10.5625 -2.195312 10.5625 -3.5 C 10.5625 -5.40625 10.144531 -6.203125 9.3125 -5.890625 C 9.832031 -6.359375 10.609375 -6.59375 11.640625 -6.59375 C 13.035156 -6.59375 13.898438 -5.722656 14.234375 -3.984375 C 14.578125 -2.253906 15.054688 -1.390625 15.671875 -1.390625 C 16.816406 -1.390625 18.613281 -2.425781 21.0625 -4.5 C 23.519531 -6.570312 24.90625 -7.632812 25.21875 -7.6875 Z M 21.96875 -11.09375 C 21.96875 -9.539062 21.164062 -8.765625 19.5625 -8.765625 C 18.363281 -8.765625 17.765625 -9.023438 17.765625 -9.546875 C 17.765625 -9.648438 17.851562 -9.894531 18.03125 -10.28125 C 18.21875 -10.664062 18.3125 -10.960938 18.3125 -11.171875 C 18.3125 -11.898438 17.925781 -12.265625 17.15625 -12.265625 C 15.238281 -12.265625 11.988281 -10.164062 7.40625 -5.96875 C 2.832031 -1.78125 0 0.3125 -1.09375 0.3125 C -1.707031 0.3125 -2.117188 0.234375 -2.328125 0.078125 C -2.328125 0.0234375 -2.328125 -0.078125 -2.328125 -0.234375 C -2.328125 -1.578125 -0.488281 -4.523438 3.1875 -9.078125 L 3.1875 -9.15625 C 1.269531 -7.238281 0.101562 -6.28125 -0.3125 -6.28125 C -0.414062 -6.28125 -0.46875 -6.304688 -0.46875 -6.359375 C -0.363281 -6.878906 0.941406 -8.171875 3.453125 -10.234375 C 5.960938 -12.304688 7.53125 -13.34375 8.15625 -13.34375 C 9.132812 -13.34375 9.625 -13.035156 9.625 -12.421875 L 9.625 -12.265625 C 8.28125 -10.347656 6.210938 -7.5 3.421875 -3.71875 L 3.5625 -3.640625 C 6.976562 -6.703125 9.3125 -8.695312 10.5625 -9.625 C 13.8125 -12.050781 16.550781 -13.265625 18.78125 -13.265625 C 20.90625 -13.265625 21.96875 -12.539062 21.96875 -11.09375 Z M 21.96875 -11.09375 " /></g></g></g></g></g></svg>